# xmcd
#
# Track frame offsets: 
#        150
#        23469
#        35212
#        58550
#        77007
#        105707
#        122855
#        138497
#        161055
#        174057
#        193407
#        207242
#        225900
#
# Disc length: 3168 seconds
#
# Revision: 0
# Processed by: cddbd v1.5.2PL0 Copyright (c) Steve Scherf et al.
# Submitted via: ExactAudioCopy v1.0b3
#
DISCID=a90c5e0d
DTITLE=George Kay Band - Featuring blues legend Vera Love
DYEAR=2001
DGENRE=Blues
TTITLE0=MOJO BOOGIE
TTITLE1=I FEEL GOOD
TTITLE2=HIDEAWAY
TTITLE3=HAND JIVE
TTITLE4=STORMY MONDAY
TTITLE5=ROLLIN'N'TUMBLIN'
TTITLE6=LET THE GOOD TIMES ROLL
TTITLE7=STAND BY ME
TTITLE8=AIN'T YOUR BUSINESS
TTITLE9=LITTLE WING
TTITLE10=WHAT I SAY
TTITLE11=HELP ME
TTITLE12=GK BROTHERS
EXTD=
EXTT0=
EXTT1=
EXTT2=
EXTT3=
EXTT4=
EXTT5=
EXTT6=
EXTT7=
EXTT8=
EXTT9=
EXTT10=
EXTT11=
EXTT12=
PLAYORDER=
